# xmcd CD database file
# Copyright (C) 1993-1998 Ti Kan
#
# Track frame offsets:
#	150
#	14008
#	27690
#	38083
#	53795
#	68560
#	81388
#	92998
#	106913
#	116535
#	129230
#	140280
#	153275
#	166528
#
# Disc length: 2391 seconds
#
# Revision: 1
# Processed by: cddbd v1.4b41PL1 Copyright (c) Steve Scherf et al.
# Submitted via: NotifyCDPlayer(CDDB) 1.51.3
#
DISCID=af09550e
DTITLE=The Kingston Trio - Tom Dooley
DYEAR=1900
DGENRE=
TTITLE0=Tom Dooley
TTITLE1=Where Have All The Flowers Gone
TTITLE2=Lemon Tree
TTITLE3=Wreck Of The John B
TTITLE4=M. T. A.
TTITLE5=A Worried Man
TTITLE6=Scotch And Soda
TTITLE7=Across The Wide Missouri
TTITLE8=Last Night I Had The Strangest Dream
TTITLE9=The Tijuana Jail
TTITLE10=El Matador
TTITLE11=The First Time
TTITLE12=Two-Ten, Six-Eighteen
TTITLE13=Greenback Dollar
EXTD=
EXTT0=
EXTT1=
EXTT2=
EXTT3=
EXTT4=
EXTT5=
EXTT6=
EXTT7=
EXTT8=
EXTT9=
EXTT10=
EXTT11=
EXTT12=
EXTT13=
PLAYORDER=
